<svg xmlns="http://www.w3.org/2000/svg" width="137.76" height="68.49" viewBox="0 0 137.76 68.49">
  <g id="Group_994" data-name="Group 994" transform="translate(-732.7 -35)">
    <path id="Path_211" data-name="Path 211" d="M-59.6-2.59l-2.912-7.7-2.856,7.7-2.6-7.21H-69.3L-65.45.49l2.94-7.616L-59.57.49-55.72-9.8h-1.33ZM-51.17-4.9A4.22,4.22,0,0,1-50.9-6.433a3.588,3.588,0,0,1,.777-1.225,3.573,3.573,0,0,1,1.183-.805A3.755,3.755,0,0,1-47.46-8.75a3.755,3.755,0,0,1,1.477.287,3.573,3.573,0,0,1,1.183.805,3.587,3.587,0,0,1,.777,1.225A4.22,4.22,0,0,1-43.75-4.9a4.22,4.22,0,0,1-.273,1.533A3.587,3.587,0,0,1-44.8-2.142a3.573,3.573,0,0,1-1.183.8,3.755,3.755,0,0,1-1.477.287,3.755,3.755,0,0,1-1.477-.287,3.573,3.573,0,0,1-1.183-.8A3.588,3.588,0,0,1-50.9-3.367,4.22,4.22,0,0,1-51.17-4.9Zm-1.26,0a5.285,5.285,0,0,0,.371,1.988,4.786,4.786,0,0,0,1.043,1.6A4.87,4.87,0,0,0-49.434-.245,5.014,5.014,0,0,0-47.46.14a5,5,0,0,0,1.981-.385A4.89,4.89,0,0,0-43.9-1.309a4.786,4.786,0,0,0,1.043-1.6A5.285,5.285,0,0,0-42.49-4.9a5.27,5.27,0,0,0-.371-1.995,4.8,4.8,0,0,0-1.043-1.6,4.89,4.89,0,0,0-1.575-1.064A5,5,0,0,0-47.46-9.94a5.014,5.014,0,0,0-1.974.385,4.87,4.87,0,0,0-1.582,1.064,4.8,4.8,0,0,0-1.043,1.6A5.27,5.27,0,0,0-52.43-4.9Zm21.84-4.9v7.294l-7.42-7.784V0h1.19V-7.294L-29.4.49V-9.8Zm6.23,0V0h1.19V-9.8ZM-21.42,0a5.381,5.381,0,0,0,1.974-.35,4.448,4.448,0,0,0,1.547-1A4.6,4.6,0,0,0-16.884-2.9a5.29,5.29,0,0,0,.364-2,5.29,5.29,0,0,0-.364-1.995A4.6,4.6,0,0,0-17.9-8.449a4.448,4.448,0,0,0-1.547-1A5.381,5.381,0,0,0-21.42-9.8H-23.7v1.19h2.282a4.249,4.249,0,0,1,1.512.259,3.324,3.324,0,0,1,1.176.742,3.285,3.285,0,0,1,.756,1.169A4.231,4.231,0,0,1-17.71-4.9a4.231,4.231,0,0,1-.266,1.54,3.285,3.285,0,0,1-.756,1.169,3.324,3.324,0,0,1-1.176.742,4.249,4.249,0,0,1-1.512.259H-23.7V0Zm10.038,0H-6.44V-1.12h-4.942Zm0-8.68H-6.44V-9.8h-4.942Zm0,3.92H-6.72V-5.88h-4.662ZM-12.04-9.8V0h1.19V-9.8ZM.21-4.83,3.57,0H5.04L1.54-4.83ZM-1.54-9.8V0H-.35V-9.8Zm.658,1.05h2a2.619,2.619,0,0,1,1.113.224,1.763,1.763,0,0,1,.756.644A1.835,1.835,0,0,1,3.262-6.86a1.835,1.835,0,0,1-.273,1.022,1.763,1.763,0,0,1-.756.644A2.619,2.619,0,0,1,1.12-4.97h-2v1.05h2a3.906,3.906,0,0,0,1.7-.357A2.887,2.887,0,0,0,4.011-5.3,2.759,2.759,0,0,0,4.452-6.86a2.75,2.75,0,0,0-.441-1.568,2.905,2.905,0,0,0-1.19-1.015A3.906,3.906,0,0,0,1.12-9.8h-2Zm16,.07h2.52V0h1.19V-8.68h2.52V-9.8H15.12ZM26.068-4.76h6.72V-5.88h-6.72ZM31.99-9.8V0h1.19V-9.8Zm-6.58,0V0H26.6V-9.8ZM38.878,0H43.82V-1.12H38.878Zm0-8.68H43.82V-9.8H38.878Zm0,3.92H43.54V-5.88H38.878ZM38.22-9.8V0h1.19V-9.8ZM50.078-6.622,53.27-.91l3.192-5.712L57.19,0h1.19L57.19-10.29l-3.92,7.1-3.92-7.1L48.16,0h1.19ZM63.518,0H68.46V-1.12H63.518Zm0-8.68H68.46V-9.8H63.518Zm0,3.92H68.18V-5.88H63.518ZM62.86-9.8V0h1.19V-9.8Z" transform="translate(802 103)"/>
    <path id="Path_193" data-name="Path 193" d="M1.256,0h10.99A1.2,1.2,0,0,1,13.5,1.131L31.714,45.512a1.2,1.2,0,0,1-1.256,1.131h-11.3A1.2,1.2,0,0,1,17.9,45.512L0,1.131A1.2,1.2,0,0,1,1.256,0Z" transform="translate(756 35)"/>
    <path id="Subtraction_1" data-name="Subtraction 1" d="M16.357,28.024H5.053a1.05,1.05,0,0,1-1.1-.989v-.025l-.009-.023L0,17.2,6.352,0l11.1,27.059a.94.94,0,0,1-.331.683A1.158,1.158,0,0,1,16.357,28.024Z" transform="translate(806.211 53.479)"/>
    <path id="Subtraction_2" data-name="Subtraction 2" d="M6.319,28.024v0h0L0,10.906C1.742,6.555,3.061,3.218,3.921.989v0h0a.919.919,0,0,1,.236-.61L3.922.988l.147-.38L4.158.377v0A1.145,1.145,0,0,1,5.02,0h11.3a1.158,1.158,0,0,1,.768.282.94.94,0,0,1,.331.683L6.32,28.024Z" transform="translate(824.455 35.104)"/>
    <path id="Subtraction_3" data-name="Subtraction 3" d="M16.357,0H5.053a1.05,1.05,0,0,0-1.1.989v.025l-.009.023L0,10.819l6.352,17.2L17.456.965a.94.94,0,0,0-.331-.683A1.158,1.158,0,0,0,16.357,0Z" transform="translate(788.627 35.104)"/>
    <circle id="Ellipse_45" data-name="Ellipse 45" cx="6" cy="6" r="6" transform="translate(836 69.724)"/>
  </g>
</svg>
