<svg id="Logotype" xmlns="http://www.w3.org/2000/svg" width="92" height="46.724" viewBox="0 0 92 46.724">
  <path id="Path_193" data-name="Path 193" d="M1.256,0h10.99A1.2,1.2,0,0,1,13.5,1.131L31.714,45.512a1.2,1.2,0,0,1-1.256,1.131h-11.3A1.2,1.2,0,0,1,17.9,45.512L0,1.131A1.2,1.2,0,0,1,1.256,0Z" fill="#1a1a1a"/>
  <path id="Subtraction_1" data-name="Subtraction 1" d="M16.357,28.024H5.053a1.05,1.05,0,0,1-1.1-.989v-.025l-.009-.023L0,17.2,6.352,0l11.1,27.059a.94.94,0,0,1-.331.683A1.158,1.158,0,0,1,16.357,28.024Z" transform="translate(50.211 18.479)" fill="#1a1a1a"/>
  <path id="Subtraction_2" data-name="Subtraction 2" d="M6.319,28.024v0h0L0,10.906C1.742,6.555,3.061,3.218,3.921.989v0h0a.919.919,0,0,1,.236-.61L3.922.988l.147-.38L4.158.377v0A1.145,1.145,0,0,1,5.02,0h11.3a1.158,1.158,0,0,1,.768.282.94.94,0,0,1,.331.683L6.32,28.024Z" transform="translate(68.455 0.104)" fill="#1a1a1a"/>
  <path id="Subtraction_3" data-name="Subtraction 3" d="M16.357,0H5.053a1.05,1.05,0,0,0-1.1.989v.025l-.009.023L0,10.819l6.352,17.2L17.456.965a.94.94,0,0,0-.331-.683A1.158,1.158,0,0,0,16.357,0Z" transform="translate(32.627 0.104)" fill="#1a1a1a"/>
  <ellipse id="Ellipse_45" data-name="Ellipse 45" cx="6" cy="5.952" rx="6" ry="5.952" transform="translate(80 34.819)" fill="#1a1a1a"/>
</svg>
