<svg fill="#ffffff" id="Logotype" xmlns="http://www.w3.org/2000/svg" width="447" height="227.016" viewBox="0 0 447 227.016">
  <path id="Path_193" data-name="Path 193" d="M6.1,0H59.5c3.37,0,6.1,2.46,6.1,5.494l88.486,215.637c0,3.034-2.732,5.494-6.1,5.494H93.063c-3.37,0-6.1-2.46-6.1-5.494L0,5.494C0,2.46,2.732,0,6.1,0Z"/>
  <path id="Subtraction_1" data-name="Subtraction 1" d="M79.473,136.158H24.55a5.1,5.1,0,0,1-5.34-4.807v-.121l-.045-.114L0,83.592,30.863,0,84.811,131.469a4.569,4.569,0,0,1-1.608,3.318A5.628,5.628,0,0,1,79.473,136.158Z" transform="translate(243.959 89.782)"/>
  <path id="Subtraction_2" data-name="Subtraction 2" d="M30.7,136.162v-.007l0,0v0L0,52.991C8.463,31.848,14.874,15.637,19.053,4.807V4.8h0A4.466,4.466,0,0,1,20.2,1.833L19.056,4.8l.712-1.845L20.2,1.833l0-.007A5.564,5.564,0,0,1,24.393,0H79.315a5.628,5.628,0,0,1,3.731,1.371,4.569,4.569,0,0,1,1.607,3.318L30.706,136.158Z" transform="translate(332.602 0.504)"/>
  <path id="Subtraction_3" data-name="Subtraction 3" d="M79.473,0H24.55a5.1,5.1,0,0,0-5.34,4.807v.121l-.045.114L0,52.566l30.863,83.593L84.811,4.689A4.569,4.569,0,0,0,83.2,1.371,5.628,5.628,0,0,0,79.473,0Z" transform="translate(158.524 0.504)"/>
  <ellipse id="Ellipse_45" data-name="Ellipse 45" cx="29.152" cy="28.919" rx="29.152" ry="28.919" transform="translate(388.696 169.177)"/>
</svg>
